<?xml version="1.0" encoding="UTF-8"?>
<svg width="108px" height="20px" viewBox="0 0 108 20" version="1.1" xmlns="http://www.w3.org/2000/svg" xmlns:xlink="http://www.w3.org/1999/xlink">
    <!-- Generator: Sketch 50.2 (55047) - http://www.bohemiancoding.com/sketch -->
    <title>Combined Shape</title>
    <desc>Created with Sketch.</desc>
    <defs>
        <path d="M41.6686004,32.5091352 C41.5955188,32.362972 41.3275529,32.1924482 41.0839476,32.1924482 L36.1143982,32.1924482 C35.8707929,32.1924482 35.602827,32.362972 35.5297454,32.5091352 L30.0242642,48.6845311 C29.9511826,48.8306943 30.0486248,49.001218 30.2435091,49.001218 L35.0668952,49.001218 C35.28614,49.001218 35.4810243,48.8794153 35.5784664,48.6845311 L36.3092825,46.1266748 L40.8890633,46.1266748 L41.6198793,48.6845311 C41.7173215,48.8794153 41.9122058,49.001218 42.1314506,49.001218 L46.9548367,49.001218 C47.149721,49.001218 47.2471631,48.8306943 47.1740815,48.6845311 L41.6686004,32.5091352 Z M39.9146418,42.6431181 L37.283704,42.6431181 L38.5991729,38.0146163 L39.9146418,42.6431181 Z M47.3202448,47.1741778 C47.2471631,47.320341 47.2958842,47.4665043 47.4176869,47.5639464 C48.8549585,48.63581 51.0230462,49.3666261 52.8500864,49.3666261 C56.6016089,49.3666261 59.1107441,47.1985384 59.1107441,43.9342266 C59.1107441,38.0146163 52.2167125,38.8915956 52.2167125,37.0401949 C52.2167125,36.5042631 52.7039232,36.1388551 53.4103787,36.1388551 C54.238637,36.1388551 55.5053848,36.5529842 56.6259695,37.1863581 C56.7964932,37.2838002 56.967017,37.2107186 57.0888197,36.9914738 L58.7696966,34.0194884 C58.8427783,33.8733252 58.7940572,33.727162 58.6722545,33.6297199 C57.2349829,32.5578563 55.0668952,31.8270402 53.2154945,31.8270402 C49.512693,31.8270402 47.0522789,33.9951279 47.0522789,37.2594397 C47.0522789,42.9841657 53.9463105,42.180268 53.9463105,44.3483557 C53.9463105,44.8599269 53.4834603,45.2009744 52.8013653,45.2009744 C51.9000255,45.2009744 50.4627539,44.6650426 49.2447271,43.8855055 C49.0742033,43.7637028 48.8793191,43.8367844 48.7818769,44.0803898 L47.3202448,47.1741778 Z M128.033497,46.5094569 C127.2946,47.2028928 126.236262,48.0309299 124.348259,49.0742996 C123.90977,49.317905 123.787967,49.317905 123.47128,49.317905 C123.178954,49.317905 122.935348,49.2935445 122.54558,49.1473812 C122.009648,48.952497 121.157029,48.5627284 120.986505,48.4652862 C120.499295,48.1973203 120.036445,47.5883069 119.768479,46.7844093 C119.669952,46.502905 119.587691,46.075016 119.535791,45.6745996 C118.857547,46.032048 118.084614,46.6378449 117.186262,47.3690621 C115.822072,48.4652862 114.604045,49.1717418 113.580902,49.1717418 C112.241073,49.1717418 111.242291,48.2216809 111.120488,47.9780755 C110.925604,47.5883069 110.828162,47.2228989 110.828162,46.8331303 C110.828162,46.2484775 111.047407,45.6151035 111.217931,45.0060901 C111.266652,44.8355664 111.339733,44.3970767 111.510257,44.0560292 C112.777005,41.5225335 114.530963,38.5505481 116.577248,37.5274056 C116.723412,37.454324 116.772133,37.454324 116.967017,37.454324 C117.795275,37.454324 118.867139,37.8440926 119.500513,38.4774665 C119.597955,38.5749086 119.597955,38.6236297 119.597955,38.818514 C119.597955,39.0864799 119.646676,39.1108404 119.646676,39.183922 C119.646676,39.2326431 119.646676,39.2570037 119.622315,39.3544458 C119.549234,39.6467722 118.794057,40.7917174 118.794057,41.6443362 C118.794057,41.8392205 118.647894,42.0097442 118.331207,42.0097442 C118.160683,42.0097442 117.990159,41.9610231 117.843996,41.8392205 L117.210622,41.3763703 C117.015738,41.2302071 116.942656,41.0353228 116.942656,40.8404385 C116.942656,40.3532278 117.478588,39.7685749 117.478588,39.3788063 C117.478588,39.2813642 117.405507,39.135201 117.283704,39.135201 C117.137541,39.135201 117.08882,39.183922 116.893935,39.3788063 C115.870793,40.4019488 114.750208,41.8392205 113.92195,43.3008526 C113.069331,44.8112058 112.509039,46.4190012 112.509039,47.0280146 C112.509039,47.3447016 112.703923,47.5395859 112.923168,47.5395859 C114.043753,47.5395859 115.188698,46.9062119 116.382364,46.0048721 C117.454228,45.2009744 118.672255,44.3483557 119.35435,44.3483557 C119.409983,44.3483557 119.468859,44.3632652 119.528437,44.3885373 C119.545861,44.3014577 119.56859,44.2075288 119.597955,44.1047503 C120.28005,41.6199756 121.936566,39.4762485 123.787967,37.5030451 C124.202096,37.0645554 125.200878,36.406821 126.394544,36.406821 C127.052279,36.406821 127.393326,36.5042631 127.880537,36.6747868 C128.148503,36.772229 128.660074,37.2107186 128.660074,38.1851401 C128.660074,38.818514 128.392108,39.3544458 128.099782,39.9390987 C127.856177,40.4263094 127.661292,40.6942753 127.320245,41.0840438 C125.639368,42.9841657 123.739246,45.1035323 121.6686,46.2484775 C121.546798,46.3215591 121.522437,46.3702801 121.522437,46.4433618 C121.522437,46.8331303 121.887845,47.3447016 122.10709,47.4665043 C122.375056,47.6126675 122.618661,47.6613886 122.862267,47.6613886 C123.276396,47.6613886 123.641804,47.5639464 124.738028,46.9792935 C126.358691,46.1102422 127.3679,44.8562007 128.748238,43.9377313 C128.852948,43.6704096 128.963052,43.3939522 129.074203,43.1059683 C130.121706,40.3775883 132.289794,36.4799026 134.141195,33.3130329 C134.555324,32.6065773 134.701487,31.2423873 135.651548,31.2423873 C135.992596,31.2423873 136.18748,31.1936663 136.455446,31.1936663 C136.699051,31.1936663 136.967017,31.2911084 137.08882,31.4616322 C137.234983,31.680877 137.283704,31.9001218 137.283704,32.1437272 C137.283704,32.4604141 137.186262,32.7527406 137.040099,32.9963459 C134.82329,36.5773447 132.265434,39.8416565 130.828162,43.6419001 C130.438393,44.6406821 129.902462,45.5663825 129.902462,46.638246 C129.902462,46.9305725 129.926822,47.2228989 130.024264,47.5395859 C130.097346,47.7588307 130.29223,47.8319123 130.511475,47.8319123 C130.657638,47.8319123 130.803801,47.8075518 130.925604,47.7344702 C131.997468,47.0767357 133.191134,45.0060901 134.311719,45.0060901 C134.506603,45.0060901 135.139977,45.1766139 135.139977,45.5663825 C135.139977,45.8830694 134.896371,45.9805116 134.652766,46.2484775 C133.410379,47.5883069 132.411597,49.4397077 130.535836,49.4397077 C130.365312,49.4397077 128.343387,48.9037759 128.099782,47.5639464 C128.051061,47.2959805 128.0267,47.0280146 128.0267,46.7356882 C128.0267,46.660305 128.029015,46.5849217 128.033497,46.5094569 Z M69.6588562,40.2070646 L74.8476504,48.7088916 C74.969453,48.8794153 74.8720109,49.001218 74.6771266,49.001218 L69.0254823,49.001218 C68.8549585,49.001218 68.6113532,48.8794153 68.513911,48.7088916 L65.4932046,42.6187576 L65.4932046,48.6601705 C65.4932046,48.8306943 65.3470413,49.001218 65.1277965,49.001218 L60.8159817,49.001218 C60.6454579,49.001218 60.4749342,48.8306943 60.4749342,48.6601705 L60.4749342,32.5578563 C60.4749342,32.362972 60.6454579,32.1924482 60.8159817,32.1924482 L65.1277965,32.1924482 C65.3470413,32.1924482 65.4932046,32.362972 65.4932046,32.5578563 L65.4932046,38.0146163 L68.4164689,32.4847747 C68.513911,32.3142509 68.7575164,32.1924482 68.9767612,32.1924482 L74.3117186,32.1924482 C74.5066029,32.1924482 74.5796845,32.3142509 74.4822423,32.4847747 L69.6588562,40.2070646 Z M96.6016089,30.8038977 C96.6016089,31.4129111 96.3336431,31.7783191 96.0900377,32.1437272 C95.8707929,32.4604141 95.7977113,32.7771011 95.5297454,33.1912302 C94.1168343,35.45676 92.2654336,37.9171742 91.4615359,40.1339829 L91.0717673,41.2058465 C89.6101351,45.2984166 89.2203666,47.0767357 89.2203666,47.953715 C89.2203666,48.8306943 89.4152508,49.1230207 89.4152508,49.317905 C89.4152508,49.3909866 89.3908903,49.4153471 89.3178087,49.4884287 C88.9767612,49.8294762 89.0498428,50 88.4408294,50 C88.2215846,50 87.5882107,49.683313 87.5638501,49.5371498 C87.466408,48.9768575 87.4176869,48.4652862 87.4176869,47.953715 C87.4176869,46.4920828 87.7830949,45.2984166 88.0510608,44.3483557 C88.2459451,43.6662607 88.8062374,42.6431181 88.8062374,42.5943971 C88.8062374,42.5700365 88.8062374,42.545676 88.7575164,42.545676 C88.7087953,42.545676 88.6600742,42.5943971 88.513911,42.7649208 C86.5650681,45.0304507 84.6649463,47.4177832 82.2776138,48.8550548 C82.0340085,49.001218 81.741682,49.0255786 81.5467977,49.0255786 C81.059587,49.0255786 79.9146418,48.4409257 79.8171997,48.2704019 C79.5492338,47.8075518 79.4030706,47.3690621 79.4030706,46.8818514 C79.4030706,46.1997564 79.6710365,45.3958587 80.2556893,44.2752741 C81.4249951,42.0584653 83.3494774,40.1583435 85.3957624,38.7941535 C85.7611705,38.5505481 86.5163471,38.3313033 87.149721,38.3313033 C87.4176869,38.3313033 87.6612923,38.3800244 87.831816,38.453106 C88.148503,38.5992692 88.6844348,38.7210719 88.9767612,38.9159562 C89.0985639,38.9159562 89.147285,38.9159562 89.1716455,38.8915956 C91.7051412,36.1388551 92.7526443,33.045067 94.8476504,30.2923264 C94.9938136,30.0974421 95.0912557,30 95.4079427,30 C95.7246297,30 96.6016089,30.3897686 96.6016089,30.8038977 Z M88.1728635,40.0121803 C88.1728635,39.8660171 88.0023398,39.7685749 87.6125712,39.7685749 C87.3689658,39.7685749 87.1984421,39.7929354 87.0035578,39.8903776 C84.6405858,41.0840438 82.3263349,43.6662607 81.3275529,46.3459196 C81.3031924,46.4190012 81.2544713,46.589525 81.2544713,46.6626066 C81.2544713,46.9062119 81.3031924,47.2228989 81.4249951,47.2228989 C81.5224372,47.2228989 81.5711583,47.1985384 81.6686004,47.1254568 C81.8147636,47.0036541 81.9609269,47.0036541 82.1801717,46.8331303 C84.2751778,45.2009744 86.0778574,43.0085262 87.6612923,40.8891596 C87.9536187,40.499391 88.1728635,40.4263094 88.1728635,40.0121803 Z M103.03279,38.4043849 C103.130233,38.6479903 103.349477,38.8672351 103.617443,38.8672351 C103.739246,38.8672351 104.104654,38.8915956 104.299538,39.183922 C104.348259,39.2570037 104.348259,39.2813642 104.348259,39.3300853 C104.348259,39.4275274 104.299538,39.5249695 104.250817,39.5980512 C103.178954,41.0596833 101.887845,42.8867235 101.424995,44.7624848 C101.254471,45.4445798 101.083948,46.1753959 101.083948,46.9305725 C101.083948,47.5639464 101.230111,48.1973203 101.595519,48.7576127 C101.619879,48.8063337 101.64424,48.8550548 101.64424,48.9037759 C101.64424,48.952497 101.546798,49.1961023 101.132669,49.2448234 C100.986505,49.2691839 100.815982,49.3422655 100.669818,49.3422655 C100.30441,49.3422655 99.7684786,49.1717418 99.6223154,48.8550548 C99.3056284,48.1485993 99.2081863,47.4421437 99.2081863,46.7600487 C99.2081863,46.0292326 99.3056284,45.6151035 99.3056284,45.5420219 C99.3056284,45.4445798 99.3056284,45.4202192 99.2081863,45.4202192 C99.1107441,45.4202192 98.8914993,45.590743 98.6235334,45.8587089 L97.3080645,47.0767357 C96.0413166,48.2704019 95.2617795,48.6114495 94.4091607,48.9037759 C94.2629975,48.952497 94.1168343,49.001218 94.0193921,49.001218 C93.7514262,49.001218 93.4590998,48.8306943 92.3141546,47.9049939 C92.1923519,47.8075518 91.7782228,47.3934227 91.7782228,46.4677223 C91.7782228,45.6638246 92.0461887,44.6406821 93.239855,42.862363 C94.6771266,40.7186358 96.0169561,39.7442144 96.7477722,39.2082826 C97.9414384,38.3313033 99.2081863,37.6979294 100.645458,37.2838002 C100.815982,37.2350792 101.010866,37.2107186 101.18139,37.2107186 C101.741682,37.2107186 102.228893,37.4786845 102.667382,37.9171742 C102.789185,38.0389769 102.984069,38.2582217 103.03279,38.4043849 Z M101.473716,38.7210719 C101.400635,38.7210719 101.035226,38.7941535 100.71854,38.9646772 C98.4286491,40.182704 96.6259695,41.5225335 95.2374189,43.2034105 C94.2142764,44.4457978 93.4103787,45.8830694 93.4103787,46.589525 C93.4103787,46.8818514 93.5078209,47.2472594 93.9463105,47.2472594 C94.1411948,47.2472594 94.7014871,46.9792935 95.1399768,46.5651644 C97.4055066,44.4457978 99.9633629,42.8136419 101.20575,40.499391 C101.376274,40.182704 101.64424,39.8416565 101.912206,39.5736906 C101.985287,39.500609 102.034008,39.3544458 102.034008,39.2082826 C102.034008,39.0377588 101.887845,38.7210719 101.473716,38.7210719 Z M107.320245,38.3313033 C107.56385,38.7454324 107.661292,39.1108404 107.685653,39.5249695 C107.710013,39.8660171 107.661292,40.182704 107.53949,40.5237515 C107.466408,40.816078 107.442047,40.864799 107.442047,40.9135201 C107.442047,40.9866017 107.466408,40.9866017 107.515129,40.9866017 C107.56385,41.0109622 107.636932,40.9866017 107.831816,40.816078 C109.171645,39.7929354 110.340951,39.1108404 111.217931,38.818514 C111.291012,38.7941535 111.437175,38.7697929 111.510257,38.7697929 C112.192352,38.7697929 112.874447,38.9646772 113.288576,39.4518879 C113.410379,39.5493301 113.4591,39.7685749 113.434739,39.8660171 C113.48346,40.5724726 112.801365,40.9378806 112.606481,40.9378806 C112.241073,40.9378806 111.851304,40.6942753 111.510257,40.6942753 C111.388454,40.6699147 111.339733,40.6942753 111.120488,40.7917174 C108.46519,42.0341048 105.73681,44.2752741 104.932912,47.9780755 C104.81111,48.4409257 104.543144,48.8306943 104.37262,48.952497 C104.250817,49.0986602 104.031572,49.1717418 103.93413,49.1717418 C103.544362,49.1473812 103.373838,48.8550548 103.203314,48.6601705 C102.959709,48.4165652 102.764825,48.0267966 102.740464,47.7344702 C102.740464,46.9062119 103.763607,46.1023143 104.055933,45.1766139 C104.664946,43.3252132 105.347041,41.498173 105.73681,39.5493301 C105.76117,39.3300853 105.785531,39.2082826 105.785531,39.1595615 C105.785531,39.0133983 105.590647,38.818514 105.566286,38.5992692 C105.566286,38.4043849 105.956055,38.0633374 106.516347,38.0633374 C106.857395,38.0633374 107.247163,38.2095006 107.320245,38.3313033 Z M125.590647,40.3045067 C125.956055,39.8660171 125.858613,39.7929354 126.1753,39.3057247 C126.394544,38.9646772 126.613789,38.6479903 126.613789,38.1851401 C126.613789,37.9902558 126.613789,37.8928136 126.467626,37.8928136 C126.272742,37.8928136 126.102218,38.0146163 125.956055,38.1120585 C125.688089,38.2825822 125.712449,38.2095006 125.468844,38.4287454 C123.885409,39.8416565 122.180172,41.8392205 121.64424,44.0073082 C121.64424,44.1047503 121.6686,44.1291108 121.692961,44.1291108 C121.741682,44.1291108 121.790403,44.1047503 121.863485,44.0560292 C123.300756,42.9598051 124.494423,41.6199756 125.590647,40.3045067 Z" id="path-1"></path>
    </defs>
    <g id="Page-1" stroke="none" stroke-width="1" fill="none" fill-rule="evenodd">
        <g id="askdarcel/icon/logo/askdarcel" transform="translate(-30.000000, -30.000000)">
            <mask id="mask-2" fill="white">
                <use xlink:href="#path-1"></use>
            </mask>
            <use id="Combined-Shape" fill="#276CE5" xlink:href="#path-1"></use>
        </g>
    </g>
</svg>