<?xml version="1.0" encoding="UTF-8"?>
<svg width="60px" height="55px" viewBox="0 0 60 55" version="1.1" xmlns="http://www.w3.org/2000/svg" xmlns:xlink="http://www.w3.org/1999/xlink">
    <!-- Generator: Sketch 50.2 (55047) - http://www.bohemiancoding.com/sketch -->
    <title>cat-homelessness</title>
    <desc>Created with Sketch.</desc>
    <defs>
        <path d="M37.1336898,67.2588235 C41.5810695,67.2588235 45.171123,63.6605294 45.171123,59.2029412 C45.171123,54.7453529 41.5810695,51.1470588 37.1336898,51.1470588 C32.6863102,51.1470588 29.0962567,54.7453529 29.0962567,59.2029412 C29.0962567,63.6605294 32.6863102,67.2588235 37.1336898,67.2588235 Z M35.0802139,26.2352941 L23.2085561,26.2352941 L23.2085561,78 L20,78 L20,23 L23.2085561,23 L43.1016043,23 L51.1229947,23 L51.1229947,26.2352941 C50.6099599,30.5490196 48.9402295,32.7058824 46.1138035,32.7058824 C46.0897115,32.7058824 42.4118483,32.7058824 35.0802139,32.7058824 L35.0802139,26.2352941 Z M69.2834225,51.1470588 C75.2043316,51.1470588 80,55.9537353 80,61.8882353 L80,78 L26.4171123,78 L26.4171123,69.9441176 L47.8502674,69.9441176 L47.8502674,51.1470588 L69.2834225,51.1470588 Z M33.6872773,33.6837519 L36.3781989,35.4312568 L32.854064,40.8579487 L30.1631424,39.1104438 L33.6872773,33.6837519 Z M40.5347594,35.9411765 L43.7433155,35.9411765 L43.7433155,42.4117647 L40.5347594,42.4117647 L40.5347594,35.9411765 Z M47.899876,35.4312568 L50.5907976,33.6837519 L54.1149325,39.1104438 L51.4240109,40.8579487 L47.899876,35.4312568 Z" id="path-1"></path>
    </defs>
    <g id="Page-1" stroke="none" stroke-width="1" fill="none" fill-rule="evenodd">
        <g id="askdarcel/icon/category/homelessness" transform="translate(-20.000000, -23.000000)">
            <mask id="mask-2" fill="white">
                <use xlink:href="#path-1"></use>
            </mask>
            <use id="cat-homelessness" fill="#000000" fill-rule="nonzero" xlink:href="#path-1"></use>
        </g>
    </g>
</svg>