<?xml version="1.0" encoding="UTF-8"?>
<svg width="60px" height="57px" viewBox="0 0 60 57" version="1.1" xmlns="http://www.w3.org/2000/svg" xmlns:xlink="http://www.w3.org/1999/xlink">
    <!-- Generator: Sketch 50.2 (55047) - http://www.bohemiancoding.com/sketch -->
    <title>cat-legal</title>
    <desc>Created with Sketch.</desc>
    <defs>
        <path d="M57.0954717,59.1697479 L46.8396418,48.913918 L41.3132338,54.440326 L29.6981395,42.8252317 L43.8165274,28.7068438 L55.4316217,40.3219381 L49.8344514,45.9191084 L60.0902813,56.1749384 L62.4106184,53.8546013 L80.0483542,71.4923371 L72.5613304,78.979361 L54.9235945,61.3416251 L57.0954717,59.1697479 Z M23.0596992,46.9391497 L27.3379986,42.6608503 L41.534225,56.8570767 L37.2559257,61.1353761 L23.0596992,46.9391497 Z M43.5955362,26.2900931 L47.8738355,22.0117937 L62.0700619,36.2080201 L57.7917626,40.4863195 L43.5955362,26.2900931 Z M20,74.2467564 L41.1765014,74.2467564 L41.1765014,78.8095964 L20,78.8095964 L20,74.2467564 Z" id="path-1"></path>
    </defs>
    <g id="Page-1" stroke="none" stroke-width="1" fill="none" fill-rule="evenodd">
        <g id="askdarcel/icon/category/legal" transform="translate(-20.000000, -22.000000)">
            <mask id="mask-2" fill="white">
                <use xlink:href="#path-1"></use>
            </mask>
            <use id="cat-legal" fill="#000000" xlink:href="#path-1"></use>
        </g>
    </g>
</svg>