<?xml version="1.0" encoding="UTF-8"?>
<svg width="60px" height="54px" viewBox="0 0 60 54" version="1.1" xmlns="http://www.w3.org/2000/svg" xmlns:xlink="http://www.w3.org/1999/xlink">
    <!-- Generator: Sketch 50.2 (55047) - http://www.bohemiancoding.com/sketch -->
    <title>cat-work</title>
    <desc>Created with Sketch.</desc>
    <defs>
        <path d="M43.985,62 L43.985,59 L23.015,59 L22.985,71 C22.985,74.33 25.655,77 28.985,77 L70.985,77 C74.315,77 76.985,74.33 76.985,71 L76.985,59 L55.985,59 L55.985,62 L43.985,62 Z M73.985,35 L61.955,35 L61.955,29 L55.955,23 L43.955,23 L37.985,29 L37.985,35 L26,35 C22.685,35 20,37.685 20,41 L20,50 C20,53.315 22.685,56 26,56 L44,56 L44,50 L56,50 L56,56 L74,56 C77.315,56 80,53.315 80,50 L80,41 C79.985,37.685 77.3,35 73.985,35 Z M55.97,35 L43.97,35 L43.97,29 L55.97,29 L55.97,35 Z" id="path-1"></path>
    </defs>
    <g id="Page-1" stroke="none" stroke-width="1" fill="none" fill-rule="evenodd">
        <g id="askdarcel/icon/category/work" transform="translate(-20.000000, -23.000000)">
            <mask id="mask-2" fill="white">
                <use xlink:href="#path-1"></use>
            </mask>
            <use id="cat-work" fill="#000000" fill-rule="nonzero" xlink:href="#path-1"></use>
        </g>
    </g>
</svg>