<?xml version="1.0" encoding="UTF-8"?>
<svg width="108px" height="18px" viewBox="0 0 108 18" version="1.1" xmlns="http://www.w3.org/2000/svg" xmlns:xlink="http://www.w3.org/1999/xlink">
    <!-- Generator: Sketch 50.2 (55047) - http://www.bohemiancoding.com/sketch -->
    <title>Combined Shape@1x</title>
    <desc>Created with Sketch.</desc>
    <defs>
        <path d="M45.1991131,33.6356341 C43.5171491,31.9358468 41.2809758,31 38.9021347,31 C36.5232936,31 34.286859,31.9361109 32.6046337,33.6361623 C29.1320065,37.1450598 29.1317452,42.8549402 32.6041111,46.3641018 C34.2863364,48.0641532 36.5225097,49 38.9013508,49 C41.2801919,49 43.5168878,48.0638891 45.1991131,46.3638377 C46.8813384,44.6640505 47.8076336,42.403917 47.8076336,39.999868 C47.8076336,37.596083 46.8813384,35.3356855 45.1991131,33.6356341 Z M43.2934795,43.3178464 C44.7457641,41.3566346 44.7457641,38.6433654 43.2934795,36.6821536 L44.6153773,35.3462481 C45.667356,36.6607643 46.2401174,38.2855571 46.2401174,39.999868 C46.2401174,41.7139148 45.667356,43.3389716 44.615116,44.6532238 L43.2934795,43.3178464 Z M36.1289976,42.8023913 C34.5998919,41.2570821 34.5998919,38.7429179 36.1289976,37.1976087 C36.8697724,36.4492481 37.854598,36.0367784 38.9018734,36.0367784 C39.9491488,36.0367784 40.9339744,36.4492481 41.6747492,37.1976087 C43.2038549,38.7429179 43.2038549,41.2570821 41.6747492,42.8023913 C40.9339744,43.5507519 39.9491488,43.9632216 38.9018734,43.9632216 C37.854598,43.9632216 36.8697724,43.5507519 36.1289976,42.8023913 Z M43.5066973,34.2263478 L42.1853221,35.5617252 C41.2417814,34.8458446 40.102791,34.4529157 38.9018734,34.4529157 C37.7009558,34.4529157 36.5619655,34.8458446 35.6184247,35.5617252 L34.2973108,34.2266119 C35.5980436,33.1632216 37.2060607,32.5843908 38.9021347,32.5843908 C40.59847,32.5843908 42.2064871,33.1629575 43.5066973,34.2263478 Z M33.1888921,35.3467762 L34.5105286,36.6824177 C33.058244,38.6436294 33.058244,41.3568987 34.5105286,43.3181105 L33.1886308,44.654016 C31.0274495,41.9478765 31.0274495,38.0526517 33.1888921,35.3467762 Z M34.2970495,45.7739162 L35.6184247,44.4385388 C36.5619655,45.1544194 37.7009558,45.5473483 38.9018734,45.5473483 C40.102791,45.5473483 41.2417814,45.1544194 42.1853221,44.4385388 L43.506436,45.7736522 C42.2057032,46.8370425 40.5976861,47.4158732 38.9013508,47.4158732 C37.2052768,47.4158732 35.5977823,46.8373065 34.2970495,45.7739162 Z M63.3916483,44.9732143 L61.1582789,44.9732143 L61.1582789,40.4521605 L56.9734216,40.4521605 L56.9734216,44.9732143 L54.7328244,44.9732143 L54.7328244,34.4981261 L56.9734216,34.4981261 L56.9734216,38.6036155 L61.1582789,38.6036155 L61.1582789,34.4981261 L63.3916483,34.4981261 L63.3916483,44.9732143 Z M71.3220773,44.9732143 L65.2363263,44.9732143 L65.2363263,34.4981261 L71.3220773,34.4981261 L71.3220773,36.3180115 L67.4769234,36.3180115 L67.4769234,38.6179453 L71.0546512,38.6179453 L71.0546512,40.4378307 L67.4769234,40.4378307 L67.4769234,43.1389991 L71.3220773,43.1389991 L71.3220773,44.9732143 Z M73.4443002,44.9732143 L73.4443002,34.4981261 L75.6848974,34.4981261 L75.6848974,43.1389991 L79.9709429,43.1389991 L79.9709429,44.9732143 L73.4443002,44.9732143 Z M88.2844417,37.7653219 C88.2844417,38.8926056 87.9290818,39.7547736 87.2183512,40.3518519 C86.5076206,40.9489301 85.4969527,41.2474647 84.1863173,41.2474647 L83.2250288,41.2474647 L83.2250288,44.9732143 L80.9844317,44.9732143 L80.9844317,34.4981261 L84.3597829,34.4981261 C85.6415072,34.4981261 86.6160368,34.7715838 87.2834008,35.3185075 C87.9507648,35.8654312 88.2844417,36.6810278 88.2844417,37.7653219 Z M83.2250288,39.4275794 L83.9622576,39.4275794 C84.6513049,39.4275794 85.166878,39.2926417 85.5089924,39.0227623 C85.8511068,38.752883 86.0221614,38.3600114 86.0221614,37.8441358 C86.0221614,37.3234836 85.8788128,36.938971 85.5921113,36.6905864 C85.3054098,36.4422019 84.8560902,36.3180115 84.2441391,36.3180115 L83.2250288,36.3180115 L83.2250288,39.4275794 Z M87.0501056,43.9486332 C87.0501056,43.5473966 87.1585205,43.2440854 87.3753536,43.0386905 C87.5921867,42.8332956 87.9077945,42.7305996 88.3221866,42.7305996 C88.7221231,42.7305996 89.0317079,42.8356838 89.2509502,43.0458554 C89.4701926,43.2560269 89.5798121,43.5569498 89.5798121,43.9486332 C89.5798121,44.3259866 89.4689879,44.6233271 89.2473364,44.8406636 C89.0256848,45.0580001 88.7173046,45.1666667 88.3221866,45.1666667 C87.9174315,45.1666667 87.6042329,45.0603883 87.3825813,44.8478285 C87.1609297,44.6352686 87.0501056,44.3355399 87.0501056,43.9486332 Z M98.8152484,42.0642637 C98.8152484,43.0100356 98.4719345,43.7551781 97.7852965,44.2997134 C97.0986584,44.8442488 96.1434026,45.1165123 94.9195004,45.1165123 C93.7919685,45.1165123 92.7945513,44.906344 91.9272191,44.4860009 L91.9272191,42.4225088 C92.6403589,42.7377661 93.2438686,42.9598759 93.7377661,43.0888448 C94.2316637,43.2178137 94.6833924,43.2822972 95.092966,43.2822972 C95.5844543,43.2822972 95.9614972,43.1891544 96.2241062,43.002866 C96.4867151,42.8165776 96.6180176,42.5395374 96.6180176,42.1717372 C96.6180176,41.9663423 96.5601963,41.7836391 96.444552,41.6236221 C96.3289077,41.4636052 96.1590577,41.3095613 95.9349969,41.1614859 C95.710936,41.0134105 95.2543888,40.7769711 94.5653415,40.4521605 C93.9196608,40.1512331 93.4354076,39.8622515 93.1125672,39.5852072 C92.7897269,39.3081629 92.5319403,38.9857455 92.3391998,38.6179453 C92.1464593,38.2501451 92.0500905,37.8202553 92.0500905,37.3282628 C92.0500905,36.4015974 92.366903,35.6731728 93.0005374,35.1429674 C93.6341718,34.6127619 94.5099233,34.3476631 95.6278182,34.3476631 C96.1771287,34.3476631 96.7011341,34.4121466 97.1998501,34.5411155 C97.6985662,34.6700844 98.2201623,34.8515935 98.7646543,35.0856481 L98.041881,36.8123898 C97.478115,36.5831117 97.0119309,36.4230972 96.6433147,36.3323413 C96.2746985,36.2415854 95.9121108,36.1962081 95.5555409,36.1962081 C95.1315118,36.1962081 94.8062671,36.2941275 94.579797,36.4899691 C94.3533269,36.6858108 94.2400935,36.9413564 94.2400935,37.2566138 C94.2400935,37.4524554 94.2858687,37.6232172 94.3774205,37.7689043 C94.4689722,37.9145914 94.61473,38.0554998 94.8146983,38.1916336 C95.0146666,38.3277674 95.4880783,38.5725658 96.2349478,38.9260362 C97.2227429,39.3941455 97.8997337,39.8634419 98.2659407,40.3339396 C98.6321476,40.8044372 98.8152484,41.3812062 98.8152484,42.0642637 Z M102.935056,44.9732143 L100.730598,44.9732143 L100.730598,34.4981261 L106.787438,34.4981261 L106.787438,36.3180115 L102.935056,36.3180115 L102.935056,39.0191799 L106.520012,39.0191799 L106.520012,40.8319004 L102.935056,40.8319004 L102.935056,44.9732143 Z M112.70149,39.0908289 L116.893575,39.0908289 L116.893575,44.5218254 C116.214165,44.7415502 115.574517,44.8955941 114.974612,44.9839616 C114.374707,45.0723292 113.76156,45.1165123 113.135154,45.1165123 C111.540226,45.1165123 110.322365,44.6519924 109.481535,43.7229387 C108.640704,42.793885 108.220295,41.4600322 108.220295,39.7213404 C108.220295,38.0304148 108.708163,36.7120859 109.683911,35.7663139 C110.65966,34.820542 112.012437,34.3476631 113.742283,34.3476631 C114.826449,34.3476631 115.87205,34.5626081 116.879119,34.9925044 L116.134663,36.7694004 C115.363701,36.3872703 114.561431,36.1962081 113.727828,36.1962081 C112.759307,36.1962081 111.983538,36.5186255 111.400498,37.16347 C110.817458,37.8083145 110.525942,38.6752591 110.525942,39.7643298 C110.525942,40.9011668 110.760841,41.7693055 111.230646,42.368772 C111.700451,42.9682386 112.383465,43.2679674 113.279708,43.2679674 C113.747104,43.2679674 114.221721,43.2202018 114.703572,43.1246693 L114.703572,40.9393739 L112.70149,40.9393739 L112.70149,39.0908289 Z M128.342143,39.7213404 C128.342143,41.4552556 127.908483,42.7879142 127.041151,43.7193563 C126.173819,44.6507983 124.930661,45.1165123 123.311641,45.1165123 C121.692621,45.1165123 120.449463,44.6507983 119.582131,43.7193563 C118.714798,42.7879142 118.281139,41.450479 118.281139,39.7070106 C118.281139,37.9635421 118.716003,36.6320776 119.585745,35.7125772 C120.455486,34.7930767 121.702258,34.3333333 123.326096,34.3333333 C124.949935,34.3333333 126.191888,34.7966591 127.051993,35.7233245 C127.912097,36.6499899 128.342143,37.9826486 128.342143,39.7213404 Z M120.630152,39.7213404 C120.630152,40.8916137 120.854209,41.772888 121.302331,42.3651896 C121.750453,42.9574912 122.420216,43.2536376 123.311641,43.2536376 C125.099309,43.2536376 125.99313,42.0762169 125.99313,39.7213404 C125.99313,37.3616872 125.104127,36.1818783 123.326096,36.1818783 C122.434672,36.1818783 121.762499,36.4792188 121.309559,37.0739087 C120.856619,37.6685987 120.630152,38.551067 120.630152,39.7213404 Z M135.73772,34.4981261 L138,34.4981261 L134.407817,44.9732143 L131.964843,44.9732143 L128.379888,34.4981261 L130.642168,34.4981261 L132.629795,40.7315917 C132.74062,41.0993919 132.855058,41.5280876 132.973112,42.0176918 C133.091165,42.507296 133.164647,42.8476254 133.193558,43.0386905 C133.246561,42.5992409 133.427253,41.8302157 133.735638,40.7315917 L135.73772,34.4981261 Z" id="path-1"></path>
    </defs>
    <g id="Page-1" stroke="none" stroke-width="1" fill="none" fill-rule="evenodd">
        <g id="askdarcel/icon/logo/help-sfgov" transform="translate(-30.000000, -31.000000)">
            <mask id="mask-2" fill="white">
                <use xlink:href="#path-1"></use>
            </mask>
            <use id="Combined-Shape" fill="white" fill-rule="nonzero" xlink:href="#path-1"></use>
        </g>
    </g>
</svg>