<svg width="14" height="12" viewBox="0 0 14 12" fill="none" xmlns="http://www.w3.org/2000/svg">
<path d="M12.5021 4.82657C11.9875 2.30337 9.75199 0.399902 7.07994 0.399902C6.21619 0.399902 5.38895 0.593569 4.62037 0.974816C3.54359 1.50989 2.65659 2.39688 2.12207 3.47367L3.11309 3.96614C3.54082 3.1046 4.25185 2.39412 5.11284 1.96639C5.72704 1.66095 6.38883 1.50657 7.07994 1.50657C9.13834 1.50657 10.8681 2.92034 11.3605 4.82657H10.3999L12.0599 6.48657L13.7199 4.82657H12.5021Z" fill="#276CE5"/>
<path d="M7.07994 10.3599C5.02154 10.3599 3.29182 8.94558 2.79936 7.0399H3.75994L2.09994 5.3799L0.439941 7.0399H1.65783C2.17243 9.56255 4.4079 11.4666 7.07994 11.4666C9.19589 11.4666 11.096 10.2885 12.0373 8.39225L11.0462 7.89978C10.2932 9.41758 8.77314 10.3599 7.07994 10.3599Z" fill="#276CE5"/>
<path d="M9.03598 3.97721L8.73994 4.27325H8.18661L7.63328 4.82658L8.18661 5.37991V6.48658L7.63328 7.59325H7.07994L6.52661 6.48658L5.97328 5.93325V5.37991L7.07994 4.82658V4.27325L6.52661 3.71991V3.22191C5.2639 3.47866 4.31328 4.59418 4.31328 5.93325C4.31328 7.46045 5.55164 8.69991 7.07994 8.69991C8.6077 8.69991 9.84661 7.46045 9.84661 5.93325C9.84661 5.16909 9.53674 4.47743 9.03598 3.97721Z" fill="#276CE5"/>
</svg>
