<svg width="141" height="18" viewBox="0 0 141 18" fill="none" xmlns="http://www.w3.org/2000/svg">
<path fill-rule="evenodd" clip-rule="evenodd" d="M8.73547 0C11.0698 0 13.2641 0.935852 14.9146 2.63564C16.5653 4.33568 17.4742 6.59608 17.4742 8.99986C17.4742 11.4039 16.5653 13.664 14.9146 15.3638C13.2638 17.0639 11.069 18 8.73471 18C6.4004 18 4.20609 17.0641 2.55536 15.3641C-0.851999 11.8549 -0.851744 6.14507 2.55587 2.63617C4.20661 0.936111 6.40118 0 8.73547 0ZM13.0446 5.68216C14.4697 7.64337 14.4697 10.3566 13.0446 12.3179L14.3415 13.6532C15.374 12.339 15.9361 10.7139 15.9361 8.99988C15.9361 7.28557 15.374 5.66077 14.3418 4.34625L13.0446 5.68216ZM6.01426 11.8024C4.51377 10.2571 4.51377 7.74292 6.01426 6.1976C6.74116 5.44925 7.70755 5.03677 8.73522 5.03677C9.76288 5.03677 10.7293 5.44925 11.4562 6.1976C12.9566 7.74292 12.9566 10.2571 11.4562 11.8024C10.7293 12.5508 9.76288 12.9632 8.73522 12.9632C7.70755 12.9632 6.74116 12.5508 6.01426 11.8024ZM11.9572 4.56174L13.2538 3.22635C11.978 2.16296 10.4001 1.5844 8.73549 1.5844C7.07116 1.5844 5.49325 2.16322 4.21687 3.22662L5.51325 4.56174C6.43912 3.84586 7.55679 3.45293 8.73523 3.45293C9.91366 3.45293 11.0313 3.84586 11.9572 4.56174ZM3.12919 4.34677L4.42609 5.68242C3.00099 7.64363 3.00099 10.3569 4.42609 12.3181L3.12893 13.654C1.00822 10.9479 1.00822 7.05264 3.12919 4.34677ZM5.51324 13.4385L4.2166 14.7739C5.49298 15.8373 7.07038 16.4159 8.73469 16.4159C10.3993 16.4159 11.9772 15.837 13.2536 14.7737L11.9572 13.4385C11.0313 14.1544 9.91365 14.5473 8.73522 14.5473C7.55677 14.5473 6.43912 14.1544 5.51324 13.4385Z" fill="#276CE5"/>
<path d="M28.0822 5.46802C28.0135 5.58009 27.9403 5.66414 27.8625 5.72017C27.7893 5.77621 27.6932 5.80422 27.5742 5.80422C27.4689 5.80422 27.3545 5.77154 27.231 5.70616C27.112 5.63612 26.9747 5.55908 26.8191 5.47503C26.668 5.39098 26.4941 5.31626 26.2973 5.25089C26.1005 5.18085 25.8763 5.14583 25.6246 5.14583C25.1898 5.14583 24.8649 5.24155 24.6498 5.433C24.4393 5.61978 24.334 5.87426 24.334 6.19646C24.334 6.40191 24.3981 6.57235 24.5262 6.70776C24.6544 6.84318 24.8214 6.95991 25.0273 7.05797C25.2379 7.15603 25.4758 7.24709 25.7413 7.33114C26.0113 7.41052 26.2859 7.50157 26.5651 7.6043C26.8442 7.70236 27.1165 7.81909 27.382 7.95451C27.652 8.08992 27.89 8.26269 28.0959 8.47282C28.3064 8.68294 28.4758 8.93977 28.6039 9.24328C28.7321 9.54213 28.7961 9.90401 28.7961 10.3289C28.7961 10.8005 28.7161 11.2418 28.5559 11.6527C28.3957 12.0636 28.1623 12.4232 27.8557 12.7314C27.5536 13.0349 27.1783 13.2754 26.7298 13.4528C26.2859 13.6256 25.7802 13.712 25.2127 13.712C24.9015 13.712 24.5834 13.6793 24.2585 13.6139C23.9381 13.5485 23.6269 13.4575 23.3249 13.3407C23.0228 13.2193 22.7391 13.0769 22.4736 12.9135C22.2082 12.75 21.9771 12.5679 21.7803 12.3671L22.4668 11.2605C22.5217 11.1811 22.5926 11.1157 22.6796 11.0644C22.7711 11.0083 22.8695 10.9803 22.9748 10.9803C23.1121 10.9803 23.2493 11.0247 23.3866 11.1134C23.5285 11.2021 23.6864 11.3002 23.8603 11.4076C24.0388 11.515 24.2425 11.613 24.4713 11.7018C24.7001 11.7905 24.9701 11.8348 25.2813 11.8348C25.7024 11.8348 26.0296 11.7414 26.263 11.5547C26.4964 11.3632 26.6131 11.062 26.6131 10.6511C26.6131 10.413 26.549 10.2192 26.4209 10.0698C26.2928 9.92035 26.1234 9.79661 25.9129 9.69855C25.707 9.60049 25.4713 9.51411 25.2058 9.4394C24.9404 9.36469 24.6681 9.28297 24.3889 9.19425C24.1097 9.10086 23.8374 8.98879 23.572 8.85805C23.3066 8.72264 23.0686 8.54753 22.8581 8.33274C22.6521 8.11327 22.4851 7.84244 22.3569 7.52025C22.2288 7.19339 22.1647 6.79181 22.1647 6.31553C22.1647 5.93263 22.2402 5.55908 22.3912 5.19486C22.5423 4.83064 22.7642 4.50611 23.0571 4.22128C23.35 3.93644 23.7093 3.70997 24.1349 3.54187C24.5605 3.3691 25.0479 3.28271 25.5971 3.28271C25.9038 3.28271 26.2012 3.3084 26.4896 3.35976C26.7825 3.40646 27.0593 3.47883 27.3202 3.57689C27.5811 3.67028 27.8236 3.78468 28.0479 3.9201C28.2767 4.05084 28.4804 4.20026 28.6588 4.36836L28.0822 5.46802Z" fill="#276CE5"/>
<path d="M32.4923 5.21587V7.80042H35.911V9.62851H32.4923V13.5999H30.1583V3.39478H36.5975V5.21587H32.4923Z" fill="#276CE5"/>
<path d="M46.2901 5.46802C46.2215 5.58009 46.1482 5.66414 46.0704 5.72017C45.9972 5.77621 45.9011 5.80422 45.7821 5.80422C45.6769 5.80422 45.5624 5.77154 45.4389 5.70616C45.3199 5.63612 45.1826 5.55908 45.027 5.47503C44.876 5.39098 44.702 5.31626 44.5053 5.25089C44.3085 5.18085 44.0842 5.14583 43.8325 5.14583C43.3977 5.14583 43.0728 5.24155 42.8577 5.433C42.6472 5.61978 42.5419 5.87426 42.5419 6.19646C42.5419 6.40191 42.606 6.57235 42.7341 6.70776C42.8623 6.84318 43.0293 6.95991 43.2353 7.05797C43.4458 7.15603 43.6838 7.24709 43.9492 7.33114C44.2192 7.41052 44.4938 7.50157 44.773 7.6043C45.0522 7.70236 45.3245 7.81909 45.5899 7.95451C45.8599 8.08992 46.0979 8.26269 46.3038 8.47282C46.5144 8.68294 46.6837 8.93977 46.8118 9.24328C46.94 9.54213 47.0041 9.90401 47.0041 10.3289C47.0041 10.8005 46.924 11.2418 46.7638 11.6527C46.6036 12.0636 46.3702 12.4232 46.0636 12.7314C45.7615 13.0349 45.3862 13.2754 44.9377 13.4528C44.4938 13.6256 43.9881 13.712 43.4206 13.712C43.1094 13.712 42.7913 13.6793 42.4664 13.6139C42.146 13.5485 41.8348 13.4575 41.5328 13.3407C41.2307 13.2193 40.947 13.0769 40.6815 12.9135C40.4161 12.75 40.185 12.5679 39.9882 12.3671L40.6747 11.2605C40.7296 11.1811 40.8005 11.1157 40.8875 11.0644C40.979 11.0083 41.0774 10.9803 41.1827 10.9803C41.32 10.9803 41.4573 11.0247 41.5946 11.1134C41.7364 11.2021 41.8943 11.3002 42.0682 11.4076C42.2467 11.515 42.4504 11.613 42.6792 11.7018C42.908 11.7905 43.1781 11.8348 43.4893 11.8348C43.9103 11.8348 44.2375 11.7414 44.4709 11.5547C44.7043 11.3632 44.821 11.062 44.821 10.6511C44.821 10.413 44.757 10.2192 44.6288 10.0698C44.5007 9.92035 44.3313 9.79661 44.1208 9.69855C43.9149 9.60049 43.6792 9.51411 43.4137 9.4394C43.1483 9.36469 42.876 9.28297 42.5968 9.19425C42.3177 9.10086 42.0454 8.98879 41.7799 8.85805C41.5145 8.72264 41.2765 8.54753 41.066 8.33274C40.86 8.11327 40.693 7.84244 40.5648 7.52025C40.4367 7.19339 40.3726 6.79181 40.3726 6.31553C40.3726 5.93263 40.4481 5.55908 40.5992 5.19486C40.7502 4.83064 40.9722 4.50611 41.2651 4.22128C41.558 3.93644 41.9172 3.70997 42.3428 3.54187C42.7684 3.3691 43.2559 3.28271 43.805 3.28271C44.1117 3.28271 44.4091 3.3084 44.6975 3.35976C44.9904 3.40646 45.2673 3.47883 45.5281 3.57689C45.789 3.67028 46.0315 3.78468 46.2558 3.9201C46.4846 4.05084 46.6883 4.20026 46.8668 4.36836L46.2901 5.46802Z" fill="#276CE5"/>
<path d="M50.7002 5.21587V7.5973H53.8443V9.34834H50.7002V11.7788H54.8054V13.5999H48.3662V3.39478H54.8054V5.21587H50.7002Z" fill="#276CE5"/>
<path d="M59.4906 8.19265C59.8063 8.19265 60.0741 8.15296 60.2937 8.07358C60.518 7.98953 60.7011 7.87513 60.8429 7.73037C60.9848 7.58562 61.0878 7.41752 61.1518 7.22607C61.2159 7.02996 61.248 6.81983 61.248 6.5957C61.248 6.14743 61.1038 5.79722 60.8155 5.54507C60.5317 5.29292 60.0901 5.16684 59.4906 5.16684H58.5569V8.19265H59.4906ZM64.4195 13.5999H62.3189C61.9299 13.5999 61.6507 13.4505 61.4814 13.1516L59.8201 10.1888C59.7423 10.0628 59.6553 9.97172 59.5592 9.91568C59.4631 9.85498 59.3258 9.82463 59.1473 9.82463H58.5569V13.5999H56.2366V3.39478H59.4906C60.2137 3.39478 60.8292 3.47183 61.3372 3.62592C61.8498 3.77534 62.2662 3.98547 62.5866 4.2563C62.9115 4.52713 63.1472 4.84698 63.2937 5.21587C63.4401 5.58476 63.5133 5.98633 63.5133 6.42059C63.5133 6.75212 63.4699 7.06498 63.3829 7.35915C63.296 7.65333 63.1678 7.92649 62.9985 8.17864C62.8292 8.42612 62.6186 8.64792 62.3669 8.84404C62.1198 9.04016 61.8338 9.20125 61.5088 9.32733C61.6598 9.40671 61.8017 9.5071 61.9344 9.62851C62.0672 9.74525 62.1861 9.88533 62.2914 10.0488L64.4195 13.5999Z" fill="#276CE5"/>
<path d="M73.8705 3.39478L69.8614 13.5999H67.7608L63.7517 3.39478H65.6189C65.8203 3.39478 65.9828 3.44381 66.1063 3.54187C66.2299 3.63526 66.3237 3.75667 66.3878 3.90609L68.3237 9.36936C68.4152 9.6075 68.5044 9.86899 68.5914 10.1538C68.6784 10.434 68.7607 10.7282 68.8385 11.0364C68.9026 10.7282 68.9735 10.434 69.0513 10.1538C69.1337 9.86899 69.2207 9.6075 69.3122 9.36936L71.2344 3.90609C71.2847 3.77534 71.3739 3.65861 71.5021 3.55588C71.6348 3.44848 71.7973 3.39478 71.9895 3.39478H73.8705Z" fill="#276CE5"/>
<path d="M76.9931 13.5999H74.6591V3.39478H76.9931V13.5999Z" fill="#276CE5"/>
<path d="M85.664 10.9593C85.719 10.9593 85.7739 10.971 85.8288 10.9943C85.8837 11.013 85.9364 11.048 85.9867 11.0994L86.9066 12.087C86.5038 12.624 85.9981 13.0302 85.3895 13.3057C84.7853 13.5765 84.0691 13.712 83.2408 13.712C82.481 13.712 81.7991 13.5812 81.195 13.3197C80.5955 13.0536 80.0852 12.6893 79.6642 12.2271C79.2477 11.7601 78.9273 11.2091 78.7031 10.5741C78.4788 9.93436 78.3667 9.24095 78.3667 8.49383C78.3667 7.73271 78.488 7.03463 78.7306 6.39958C78.9731 5.75986 79.3141 5.20887 79.7534 4.74659C80.1928 4.28431 80.7191 3.92477 81.3323 3.66794C81.9456 3.41112 82.6206 3.28271 83.3575 3.28271C83.7327 3.28271 84.0851 3.31774 84.4146 3.38778C84.7487 3.45315 85.0599 3.54654 85.3483 3.66794C85.6366 3.78468 85.902 3.9271 86.1446 4.0952C86.3871 4.2633 86.6022 4.44541 86.7899 4.64153L86.0073 5.71317C85.9569 5.77854 85.8974 5.83924 85.8288 5.89528C85.7602 5.94664 85.664 5.97232 85.5405 5.97232C85.4581 5.97232 85.3803 5.95365 85.3071 5.91629C85.2338 5.87893 85.156 5.83457 85.0737 5.78321C84.9913 5.72718 84.8998 5.66881 84.7991 5.60811C84.703 5.54273 84.5863 5.48436 84.449 5.433C84.3162 5.37697 84.1584 5.33027 83.9753 5.29292C83.7968 5.25556 83.5863 5.23688 83.3437 5.23688C82.9593 5.23688 82.6069 5.30926 82.2865 5.45401C81.9708 5.59877 81.6962 5.81123 81.4628 6.09139C81.2339 6.36689 81.0554 6.70776 80.9273 7.11401C80.8037 7.51558 80.742 7.97552 80.742 8.49383C80.742 9.01681 80.8106 9.48142 80.9479 9.88767C81.0898 10.2939 81.2797 10.6371 81.5177 10.9173C81.7602 11.1928 82.0417 11.4029 82.3621 11.5477C82.6824 11.6924 83.0257 11.7648 83.3918 11.7648C83.6023 11.7648 83.7945 11.7554 83.9684 11.7368C84.1423 11.7134 84.3048 11.6784 84.4558 11.6317C84.6069 11.5803 84.7487 11.515 84.8815 11.4356C85.0142 11.3515 85.1492 11.2465 85.2865 11.1204C85.3414 11.0737 85.4009 11.0364 85.465 11.0083C85.529 10.9756 85.5954 10.9593 85.664 10.9593Z" fill="#276CE5"/>
<path d="M90.2535 5.21587V7.5973H93.3976V9.34834H90.2535V11.7788H94.3587V13.5999H87.9195V3.39478H94.3587V5.21587H90.2535Z" fill="#276CE5"/>
<path d="M103.773 8.31172H107.329V12.6193C106.816 13.0022 106.269 13.28 105.688 13.4528C105.112 13.6256 104.507 13.712 103.876 13.712C103.052 13.712 102.302 13.5812 101.624 13.3197C100.952 13.0536 100.375 12.6893 99.8943 12.2271C99.4138 11.7601 99.0431 11.2091 98.7822 10.5741C98.5214 9.93436 98.3909 9.24095 98.3909 8.49383C98.3909 7.73271 98.5145 7.03463 98.7616 6.39958C99.0088 5.75986 99.3611 5.20887 99.8188 4.74659C100.281 4.28431 100.837 3.92477 101.487 3.66794C102.141 3.41112 102.871 3.28271 103.677 3.28271C104.093 3.28271 104.485 3.31774 104.851 3.38778C105.217 3.45782 105.553 3.55354 105.86 3.67495C106.171 3.79636 106.455 3.94111 106.711 4.10921C106.967 4.27731 107.196 4.45942 107.398 4.65554L106.725 5.69916C106.62 5.86259 106.482 5.96298 106.313 6.00034C106.148 6.0377 105.97 5.99567 105.777 5.87426C105.594 5.7622 105.421 5.66647 105.256 5.58709C105.096 5.50304 104.931 5.43534 104.761 5.38397C104.592 5.33261 104.414 5.29525 104.226 5.2719C104.038 5.24856 103.828 5.23688 103.594 5.23688C103.16 5.23688 102.768 5.31626 102.421 5.47503C102.073 5.62912 101.775 5.84858 101.528 6.13342C101.286 6.41826 101.098 6.76146 100.965 7.16304C100.833 7.55994 100.766 8.00354 100.766 8.49383C100.766 9.03549 100.839 9.51644 100.986 9.93669C101.132 10.3569 101.338 10.7118 101.604 11.0013C101.874 11.2908 102.194 11.5126 102.565 11.6667C102.94 11.8162 103.354 11.8909 103.807 11.8909C104.086 11.8909 104.338 11.8628 104.562 11.8068C104.791 11.7508 105.013 11.6761 105.228 11.5827V10.0348H104.24C104.093 10.0348 103.979 9.99506 103.897 9.91568C103.814 9.8363 103.773 9.73591 103.773 9.6145V8.31172Z" fill="#276CE5"/>
<path d="M113.063 11.7298C113.374 11.7298 113.651 11.6784 113.894 11.5757C114.141 11.4683 114.349 11.3165 114.519 11.1204C114.688 10.9243 114.816 10.6861 114.903 10.406C114.995 10.1211 115.04 9.79895 115.04 9.4394V3.39478H117.361V9.4394C117.361 10.0651 117.26 10.6394 117.059 11.1624C116.862 11.6854 116.578 12.136 116.207 12.5142C115.837 12.8925 115.386 13.1866 114.855 13.3968C114.324 13.6069 113.727 13.712 113.063 13.712C112.395 13.712 111.796 13.6069 111.265 13.3968C110.734 13.1866 110.283 12.8925 109.912 12.5142C109.542 12.136 109.258 11.6854 109.061 11.1624C108.864 10.6394 108.766 10.0651 108.766 9.4394V3.39478H111.086V9.43239C111.086 9.79194 111.13 10.1141 111.217 10.399C111.308 10.6791 111.439 10.9196 111.608 11.1204C111.777 11.3165 111.983 11.4683 112.226 11.5757C112.473 11.6784 112.752 11.7298 113.063 11.7298Z" fill="#276CE5"/>
<path d="M121.507 13.5999H119.173V3.39478H121.507V13.5999Z" fill="#276CE5"/>
<path d="M132.512 8.49383C132.512 9.23161 132.386 9.91335 132.135 10.5391C131.888 11.1601 131.537 11.6994 131.084 12.157C130.631 12.61 130.084 12.9648 129.444 13.2217C128.808 13.4738 128.1 13.5999 127.322 13.5999H123.437V3.39478H127.322C128.1 3.39478 128.808 3.52319 129.444 3.78001C130.084 4.03683 130.631 4.39171 131.084 4.84465C131.537 5.29759 131.888 5.83691 132.135 6.46262C132.386 7.08365 132.512 7.76073 132.512 8.49383ZM130.137 8.49383C130.137 7.98953 130.073 7.53426 129.945 7.12802C129.817 6.72177 129.631 6.37857 129.389 6.0984C129.151 5.81356 128.858 5.59643 128.51 5.44701C128.162 5.29292 127.766 5.21587 127.322 5.21587H125.771V11.7788H127.322C127.766 11.7788 128.162 11.7041 128.51 11.5547C128.858 11.4006 129.151 11.1834 129.389 10.9033C129.631 10.6184 129.817 10.2729 129.945 9.86665C130.073 9.46041 130.137 9.0028 130.137 8.49383Z" fill="#276CE5"/>
<path d="M136.216 5.21587V7.5973H139.36V9.34834H136.216V11.7788H140.321V13.5999H133.882V3.39478H140.321V5.21587H136.216Z" fill="#276CE5"/>
</svg>
