<?xml version="1.0" standalone="no"?>
<!DOCTYPE svg PUBLIC "-//W3C//DTD SVG 20010904//EN"
 "http://www.w3.org/TR/2001/REC-SVG-20010904/DTD/svg10.dtd">
<svg version="1.0" xmlns="http://www.w3.org/2000/svg"
 width="300.000000pt" height="300.000000pt" viewBox="0 0 300.000000 300.000000"
 preserveAspectRatio="xMidYMid meet">
<metadata>
Created by potrace 1.11, written by Peter Selinger 2001-2013
</metadata>
<g transform="translate(0.000000,300.000000) scale(0.100000,-0.100000)"
fill="#000000" stroke="none">
<path d="M1369 2816 c-2 -2 -27 -6 -56 -10 -28 -3 -57 -8 -65 -10 -7 -3 -26
-7 -43 -9 -52 -8 -212 -65 -287 -102 -383 -192 -648 -551 -722 -978 -14 -82
-15 -354 -2 -407 4 -14 9 -41 12 -60 24 -145 122 -370 218 -505 50 -69 200
-227 262 -276 55 -43 147 -100 220 -138 85 -43 272 -108 333 -116 20 -3 47 -8
61 -11 60 -14 317 -13 410 2 173 28 382 110 524 207 309 209 518 541 572 907
11 70 11 318 0 389 -60 409 -337 790 -709 977 -96 49 -237 99 -319 114 -29 6
-64 13 -78 16 -30 7 -324 16 -331 10z m296 -240 c184 -32 384 -118 493 -211
l23 -19 -97 -97 -97 -97 -55 35 c-133 85 -268 124 -437 125 -148 0 -301 -44
-427 -125 l-55 -35 -97 97 c-109 109 -108 96 -15 159 116 78 285 144 428 166
79 13 267 14 336 2z m-853 -645 c-165 -257 -164 -606 3 -867 l33 -51 -98 -98
-98 -98 -36 49 c-76 104 -152 275 -177 398 -33 158 -32 334 1 479 28 124 104
292 176 391 l36 49 98 -98 98 -98 -36 -56z m1587 181 c150 -222 215 -505 177
-777 -21 -149 -92 -325 -183 -454 l-46 -63 -98 98 -98 97 31 45 c45 65 95 190
114 284 41 204 -11 461 -127 618 l-18 25 96 97 c53 53 100 95 105 92 4 -3 25
-31 47 -62z m-716 -61 c174 -61 311 -199 368 -369 28 -83 35 -239 13 -322 -42
-163 -169 -318 -316 -385 -95 -43 -173 -58 -278 -52 -156 9 -279 64 -386 173
-105 108 -166 260 -163 408 3 109 14 158 61 254 73 150 213 263 378 306 79 21
247 14 323 -13z m-519 -1291 c154 -70 348 -91 501 -55 39 9 77 18 85 20 31 6
129 54 182 88 l55 35 98 -98 98 -98 -49 -36 c-64 -47 -202 -118 -284 -146
-211 -72 -479 -74 -685 -5 -93 31 -229 100 -299 151 l-49 36 98 98 98 99 44
-31 c24 -16 72 -43 107 -58z"/>
</g>
</svg>
